<svg xmlns="http://www.w3.org/2000/svg" viewBox="0 0 100 100">
  <rect width="100" height="100" rx="20" fill="#2563eb"/>
  <path d="M25 30 L50 30 L50 70 L25 70 Z" fill="white" opacity="0.3"/>
  <path d="M35 40 L65 40 L65 45 L35 45 Z" fill="white"/>
  <path d="M35 52 L60 52 L60 57 L35 57 Z" fill="white"/>
  <path d="M35 64 L55 64 L55 69 L35 69 Z" fill="white"/>
  <path d="M55 25 L80 25 L80 80 L55 80 Z" fill="white"/>
  <rect x="60" y="35" width="15" height="2" fill="#2563eb"/>
  <rect x="60" y="42" width="12" height="2" fill="#2563eb"/>
  <rect x="60" y="49" width="10" height="2" fill="#2563eb"/>
  <rect x="60" y="56" width="14" height="2" fill="#2563eb"/>
  <rect x="60" y="63" width="8" height="2" fill="#2563eb"/>
  <rect x="60" y="70" width="11" height="2" fill="#2563eb"/>
  <circle cx="75" cy="30" r="8" fill="#2563eb"/>
  <path d="M72 30 L75 33 L78 27" stroke="white" stroke-width="2" fill="none" stroke-linecap="round" stroke-linejoin="round"/>
</svg>
